<svg xmlns="http://www.w3.org/2000/svg" width="800" height="181" viewBox="0 0 800 181">
  <g transform="translate(0.5,0.5)" text-anchor="middle" font-size="14" font-family="sans-serif" font-weight="normal" fill="white" fill-opacity="0.8">
    <g transform="translate(4,21)">
      <g stroke="white" stroke-opacity="0.8" stroke-width="1" stroke-linecap="round">
        <line x2="791"/>
        <line x1="791" x2="791" y2="71"/>
        <line x2="791" y1="71" y2="71"/>
        <line y2="71"/>
        <line x1="25" x2="25" y2="8"/>
        <line x1="25" x2="25" y1="71" y2="63"/>
        <line x1="49" x2="49" y2="8"/>
        <line x1="49" x2="49" y1="71" y2="63"/>
        <line x1="74" x2="74" y2="8"/>
        <line x1="74" x2="74" y1="71" y2="63"/>
        <line x1="99" x2="99" y2="8"/>
        <line x1="99" x2="99" y1="71" y2="63"/>
        <line x1="124" x2="124" y2="8"/>
        <line x1="124" x2="124" y1="71" y2="63"/>
        <line x1="148" x2="148" y2="8"/>
        <line x1="148" x2="148" y1="71" y2="63"/>
        <line x1="173" x2="173" y2="8"/>
        <line x1="173" x2="173" y1="71" y2="63"/>
        <line x1="198" x2="198" y2="71"/>
        <line x1="222" x2="222" y2="8"/>
        <line x1="222" x2="222" y1="71" y2="63"/>
        <line x1="247" x2="247" y2="8"/>
        <line x1="247" x2="247" y1="71" y2="63"/>
        <line x1="272" x2="272" y2="8"/>
        <line x1="272" x2="272" y1="71" y2="63"/>
        <line x1="297" x2="297" y2="8"/>
        <line x1="297" x2="297" y1="71" y2="63"/>
        <line x1="321" x2="321" y2="8"/>
        <line x1="321" x2="321" y1="71" y2="63"/>
        <line x1="346" x2="346" y2="8"/>
        <line x1="346" x2="346" y1="71" y2="63"/>
        <line x1="371" x2="371" y2="8"/>
        <line x1="371" x2="371" y1="71" y2="63"/>
        <line x1="396" x2="396" y2="71"/>
        <line x1="420" x2="420" y2="8"/>
        <line x1="420" x2="420" y1="71" y2="63"/>
        <line x1="445" x2="445" y2="8"/>
        <line x1="445" x2="445" y1="71" y2="63"/>
        <line x1="470" x2="470" y2="71"/>
        <line x1="494" x2="494" y2="71"/>
        <line x1="519" x2="519" y2="8"/>
        <line x1="519" x2="519" y1="71" y2="63"/>
        <line x1="544" x2="544" y2="8"/>
        <line x1="544" x2="544" y1="71" y2="63"/>
        <line x1="569" x2="569" y2="8"/>
        <line x1="569" x2="569" y1="71" y2="63"/>
        <line x1="593" x2="593" y2="8"/>
        <line x1="593" x2="593" y1="71" y2="63"/>
        <line x1="618" x2="618" y2="8"/>
        <line x1="618" x2="618" y1="71" y2="63"/>
        <line x1="643" x2="643" y2="8"/>
        <line x1="643" x2="643" y1="71" y2="63"/>
        <line x1="667" x2="667" y2="8"/>
        <line x1="667" x2="667" y1="71" y2="63"/>
        <line x1="692" x2="692" y2="8"/>
        <line x1="692" x2="692" y1="71" y2="63"/>
        <line x1="717" x2="717" y2="8"/>
        <line x1="717" x2="717" y1="71" y2="63"/>
        <line x1="742" x2="742" y2="8"/>
        <line x1="742" x2="742" y1="71" y2="63"/>
        <line x1="766" x2="766" y2="8"/>
        <line x1="766" x2="766" y1="71" y2="63"/>
      </g>
      <g>
        <g>
          <rect width="198" height="71" field="LEN" style="fill-opacity:0.1;fill:hsl(0,100%,50%)"/>
          <rect x="198" width="198" height="71" field="TXN" style="fill-opacity:0.1;fill:hsl(80,100%,50%)"/>
          <rect x="396" width="74" height="71" field="Reserved" style="fill-opacity:0.1;fill:hsl(45,100%,50%)"/>
          <rect x="470" width="25" height="71" field="RESP" style="fill-opacity:0.1;fill:hsl(170,100%,50%)"/>
          <rect x="494" width="297" height="71" field="RPC_ID" style="fill-opacity:0.1;fill:hsl(215,100%,50%)"/>
        </g>
        <g transform="translate(12,-11)"/>
        <g transform="translate(12,35)">
          <g transform="translate(87)">
            <text y="6">
              <tspan>LEN</tspan>
            </text>
          </g>
          <g transform="translate(284)">
            <text y="6">
              <tspan>TXN</tspan>
            </text>
          </g>
          <g transform="translate(420)">
            <text y="6" transform="rotate(-50)">
              <tspan>Reserved</tspan>
            </text>
          </g>
          <g transform="translate(470)">
            <text y="6" transform="rotate(-90)">
              <tspan>RESP</tspan>
            </text>
          </g>
          <g transform="translate(630)">
            <text y="6">
              <tspan>RPC_ID</tspan>
            </text>
          </g>
        </g>
        <g transform="translate(12,79)"/>
      </g>
    </g>
    <g transform="translate(4,92)">
      <g stroke="white" stroke-opacity="0.8" stroke-width="1" stroke-linecap="round">
        <line x2="791"/>
        <line x1="791" x2="791" y2="71"/>
        <line x2="791" y1="71" y2="71"/>
        <line y2="71"/>
        <line x1="25" x2="25" y2="8"/>
        <line x1="25" x2="25" y1="71" y2="63"/>
        <line x1="49" x2="49" y2="8"/>
        <line x1="49" x2="49" y1="71" y2="63"/>
        <line x1="74" x2="74" y2="8"/>
        <line x1="74" x2="74" y1="71" y2="63"/>
        <line x1="99" x2="99" y2="8"/>
        <line x1="99" x2="99" y1="71" y2="63"/>
        <line x1="124" x2="124" y2="8"/>
        <line x1="124" x2="124" y1="71" y2="63"/>
        <line x1="148" x2="148" y2="8"/>
        <line x1="148" x2="148" y1="71" y2="63"/>
        <line x1="173" x2="173" y2="8"/>
        <line x1="173" x2="173" y1="71" y2="63"/>
        <line x1="198" x2="198" y2="8"/>
        <line x1="198" x2="198" y1="71" y2="63"/>
        <line x1="222" x2="222" y2="8"/>
        <line x1="222" x2="222" y1="71" y2="63"/>
        <line x1="247" x2="247" y2="8"/>
        <line x1="247" x2="247" y1="71" y2="63"/>
        <line x1="272" x2="272" y2="8"/>
        <line x1="272" x2="272" y1="71" y2="63"/>
        <line x1="297" x2="297" y2="8"/>
        <line x1="297" x2="297" y1="71" y2="63"/>
        <line x1="321" x2="321" y2="8"/>
        <line x1="321" x2="321" y1="71" y2="63"/>
        <line x1="346" x2="346" y2="8"/>
        <line x1="346" x2="346" y1="71" y2="63"/>
        <line x1="371" x2="371" y2="8"/>
        <line x1="371" x2="371" y1="71" y2="63"/>
        <line x1="396" x2="396" y2="8"/>
        <line x1="396" x2="396" y1="71" y2="63"/>
        <line x1="420" x2="420" y2="8"/>
        <line x1="420" x2="420" y1="71" y2="63"/>
        <line x1="445" x2="445" y2="8"/>
        <line x1="445" x2="445" y1="71" y2="63"/>
        <line x1="470" x2="470" y2="8"/>
        <line x1="470" x2="470" y1="71" y2="63"/>
        <line x1="494" x2="494" y2="8"/>
        <line x1="494" x2="494" y1="71" y2="63"/>
        <line x1="519" x2="519" y2="8"/>
        <line x1="519" x2="519" y1="71" y2="63"/>
        <line x1="544" x2="544" y2="8"/>
        <line x1="544" x2="544" y1="71" y2="63"/>
        <line x1="569" x2="569" y2="8"/>
        <line x1="569" x2="569" y1="71" y2="63"/>
        <line x1="593" x2="593" y2="8"/>
        <line x1="593" x2="593" y1="71" y2="63"/>
        <line x1="618" x2="618" y2="8"/>
        <line x1="618" x2="618" y1="71" y2="63"/>
        <line x1="643" x2="643" y2="8"/>
        <line x1="643" x2="643" y1="71" y2="63"/>
        <line x1="667" x2="667" y2="8"/>
        <line x1="667" x2="667" y1="71" y2="63"/>
        <line x1="692" x2="692" y2="8"/>
        <line x1="692" x2="692" y1="71" y2="63"/>
        <line x1="717" x2="717" y2="8"/>
        <line x1="717" x2="717" y1="71" y2="63"/>
        <line x1="742" x2="742" y2="8"/>
        <line x1="742" x2="742" y1="71" y2="63"/>
        <line x1="766" x2="766" y2="8"/>
        <line x1="766" x2="766" y1="71" y2="63"/>
      </g>
      <g>
        <g>
          <rect width="791" height="71" field="PAYLOAD" style="fill-opacity:0.1"/>
        </g>
        <g transform="translate(12,-11)"/>
        <g transform="translate(12,35)">
          <g transform="translate(383)">
            <text y="6">
              <tspan>PAYLOAD</tspan>
            </text>
          </g>
        </g>
        <g transform="translate(12,79)">
          <g transform="translate(383)">
            <text y="6">
              <tspan>Variable length payload. Length is 4 * LEN bytes.</tspan>
            </text>
          </g>
        </g>
      </g>
    </g>
    <g transform="translate(4,-3)">
      <g transform="translate(12,11)">
        <text y="6">0</text>
      </g>
      <g transform="translate(185,11)">
        <text y="6">7</text>
      </g>
      <g transform="translate(210,11)">
        <text y="6">8</text>
      </g>
      <g transform="translate(383,11)">
        <text y="6">15</text>
      </g>
      <g transform="translate(408,11)">
        <text y="6">16</text>
      </g>
      <g transform="translate(457,11)">
        <text y="6">18</text>
      </g>
      <g transform="translate(482,11)">
        <text y="6">19</text>
      </g>
      <g transform="translate(507,11)">
        <text y="6">20</text>
      </g>
      <g transform="translate(779,11)">
        <text y="6">31</text>
      </g>
    </g>
  </g>
</svg>

